<svg width="150" height="150" viewBox="0 0 150 150" fill="none" xmlns="http://www.w3.org/2000/svg">
<path d="M118.086 40.4754L122.034 34.4224C122.756 33.3174 124.249 32.9811 125.356 33.7018C126.464 34.4224 126.801 35.9116 126.078 37.0165L122.131 43.0696C121.649 43.7902 120.879 44.1746 120.108 44.1746C119.675 44.1746 119.194 44.0304 118.809 43.7902C117.653 43.0696 117.364 41.5804 118.086 40.4754ZM79.4256 46.9129L85.4919 50.8522C85.8771 51.0924 86.3585 51.2365 86.7919 51.2365C87.5622 51.2365 88.3325 50.8522 88.814 50.1316C89.5361 49.0266 89.1991 47.5374 88.0918 46.8168L82.0255 42.8775C80.9181 42.1569 79.4256 42.4931 78.7034 43.5981C78.0294 44.703 78.3183 46.1923 79.4256 46.9129ZM134.552 76.8901L128.486 72.9508C127.378 72.2302 125.886 72.5664 125.164 73.6714C124.442 74.7763 124.779 76.2655 125.886 76.9862L131.952 80.9255C132.337 81.1657 132.819 81.3098 133.252 81.3098C134.022 81.3098 134.793 80.9255 135.274 80.2049C135.948 79.0999 135.659 77.6107 134.552 76.8901ZM139.944 54.9356C139.655 53.6385 138.404 52.8218 137.104 53.062L130.026 54.5513C128.726 54.8395 127.908 56.0886 128.149 57.3857C128.389 58.4906 129.4 59.3073 130.508 59.3073C130.652 59.3073 130.845 59.3073 130.989 59.2592L138.067 57.77C139.367 57.4818 140.233 56.2327 139.944 54.9356ZM99.6467 38.9382C99.8874 40.0431 100.898 40.8598 102.006 40.8598C102.15 40.8598 102.343 40.8598 102.487 40.8117C103.787 40.5235 104.606 39.2744 104.365 37.9773L102.872 30.9154C102.584 29.6183 101.332 28.8016 100.032 29.0418C98.7319 29.3301 97.9134 30.5791 98.1542 31.8762L99.6467 38.9382ZM130.845 101.15C130.845 112.68 121.457 122 109.95 122H37.154C22.1808 122 10 109.846 10 94.9052C10 82.1265 19.2439 71.0291 31.7136 68.483C35.3245 57.4337 45.7239 49.8433 57.4232 49.8433C67.0041 49.8433 75.6703 54.7915 80.5811 62.9584C82.5551 62.1897 84.5772 61.8054 86.5993 61.6132C86.6474 57.77 87.7066 54.0228 89.825 50.7561C92.7619 46.1923 97.3838 43.0696 102.728 41.9167C108.072 40.7637 113.513 41.8206 118.086 44.751C127.523 50.9002 130.219 63.5829 124.105 72.9988C121.697 76.6499 118.279 79.2921 114.379 80.8294C123.767 82.8951 130.845 91.2061 130.845 101.15ZM91.4138 61.6613C100.321 62.7182 107.591 68.6752 110.431 77.0342C114.379 76.1695 117.894 73.8635 120.157 70.4046C124.827 63.1986 122.756 53.4944 115.535 48.7864C112.068 46.5285 107.88 45.7599 103.787 46.6246C99.6948 47.4893 96.1802 49.8914 93.9174 53.3983C92.2323 55.8964 91.4138 58.7308 91.4138 61.6613ZM126.03 101.15C126.03 92.311 118.809 85.105 109.998 85.105C109.902 85.105 109.372 85.153 109.324 85.153C108.168 85.2491 106.965 84.2402 106.82 82.9432C106.002 73.3831 98.2023 66.2251 88.6695 66.2251C85.9252 66.2251 83.2291 66.8977 80.5811 68.1948C79.3775 68.7712 77.9331 68.2908 77.3554 67.0898C73.5519 59.4034 65.8968 54.6474 57.4232 54.6474C47.3608 54.6474 38.5502 61.4691 35.9503 71.2213C35.7096 72.1341 34.9393 72.8547 33.9764 72.9988C23.0474 74.5841 14.8627 84 14.8627 94.9533C14.8627 107.252 24.8769 117.244 37.2021 117.244H109.95C118.809 117.244 126.03 110.038 126.03 101.15Z" fill="#663366"/>
</svg>
