<svg width="150" height="150" viewBox="0 0 150 150" fill="none" xmlns="http://www.w3.org/2000/svg">
<path fill-rule="evenodd" clip-rule="evenodd" d="M98.1057 21.0624V31.851C98.1057 32.9827 99.0253 33.9036 100.158 33.9036C101.291 33.9036 102.211 32.9827 102.211 31.851V21.0624C102.211 19.9293 101.291 19.0098 100.158 19.0098C99.0253 19.0098 98.1057 19.9293 98.1057 21.0624Z" fill="#663366"/>
<path fill-rule="evenodd" clip-rule="evenodd" d="M125.469 100.074V110.861C125.469 111.994 126.388 112.914 127.521 112.914C128.654 112.914 129.574 111.994 129.574 110.861V100.074C129.574 98.9411 128.654 98.0215 127.521 98.0215C126.388 98.0215 125.469 98.9411 125.469 100.074Z" fill="#663366"/>
<path fill-rule="evenodd" clip-rule="evenodd" d="M36.1052 123.627V134.414C36.1052 135.547 37.0248 136.467 38.1579 136.467C39.2909 136.467 40.2105 135.547 40.2105 134.414V123.627C40.2105 122.494 39.2909 121.574 38.1579 121.574C37.0248 121.574 36.1052 122.494 36.1052 123.627Z" fill="#663366"/>
<path fill-rule="evenodd" clip-rule="evenodd" d="M105.553 24.4043H94.7643C93.6312 24.4043 92.7117 25.3239 92.7117 26.4569C92.7117 27.59 93.6312 28.5096 94.7643 28.5096H105.553C106.686 28.5096 107.606 27.59 107.606 26.4569C107.606 25.3239 106.686 24.4043 105.553 24.4043Z" fill="#663366"/>
<path fill-rule="evenodd" clip-rule="evenodd" d="M132.915 103.416H122.127C120.994 103.416 120.074 104.336 120.074 105.469C120.074 106.6 120.994 107.521 122.127 107.521H132.915C134.049 107.521 134.968 106.6 134.968 105.469C134.968 104.336 134.049 103.416 132.915 103.416Z" fill="#663366"/>
<path fill-rule="evenodd" clip-rule="evenodd" d="M43.5522 126.969H32.7636C31.6305 126.969 30.7109 127.888 30.7109 129.021C30.7109 130.153 31.6305 131.074 32.7636 131.074H43.5522C44.6839 131.074 45.6048 130.153 45.6048 129.021C45.6048 127.888 44.6839 126.969 43.5522 126.969Z" fill="#663366"/>
<path fill-rule="evenodd" clip-rule="evenodd" d="M61.2159 15.7001C61.9452 15.1582 62.2312 14.2016 61.9192 13.3477C61.6072 12.4938 60.7711 11.9478 59.8639 12.004C32.0535 13.7391 10 36.8764 10 65.1233C10 94.4992 33.8488 118.348 63.2247 118.348C81.5164 118.348 97.6651 109.102 107.248 95.0287C107.761 94.2761 107.716 93.2758 107.14 92.5724C106.563 91.8677 105.591 91.6282 104.752 91.9826C99.4659 94.22 93.6529 95.457 87.5525 95.457C63.1412 95.457 43.3224 75.6382 43.3224 51.227C43.3224 36.6793 50.3615 23.7642 61.2159 15.7001ZM53.4596 16.9768C44.6634 25.7319 39.2171 37.8493 39.2171 51.227C39.2171 77.9043 60.8751 99.5623 87.5525 99.5623C91.7412 99.5623 95.8068 99.0273 99.6835 98.0242C90.6916 107.981 77.6834 114.243 63.2247 114.243C36.1149 114.243 14.1053 92.2331 14.1053 65.1233C14.1053 41.3552 31.0244 21.5063 53.4624 16.9754L53.4596 16.9768Z" fill="#663366"/>
<path fill-rule="evenodd" clip-rule="evenodd" d="M82.923 128.574C78.1623 128.706 74.1446 131.842 72.7023 136.153C72.4929 136.778 72.5969 137.468 72.9828 138.003C73.3687 138.539 73.9886 138.857 74.6482 138.857H119.72C120.345 138.857 120.936 138.571 121.326 138.081C123.32 135.571 124.512 132.396 124.512 128.945C124.512 120.832 117.926 114.244 109.812 114.244C104.105 114.244 99.1525 117.504 96.7181 122.263C95.9162 122.108 95.0883 122.028 94.2412 122.028C89.4052 122.028 85.1796 124.662 82.923 128.574ZM118.673 134.751H78.2622C79.5307 133.469 81.2919 132.675 83.2378 132.675C83.48 132.675 83.7181 132.686 83.9535 132.711C84.8388 132.801 85.6818 132.309 86.0403 131.494C87.4251 128.339 90.578 126.133 94.2412 126.133C95.2826 126.133 96.2829 126.311 97.2135 126.638C98.2795 127.014 99.4494 126.456 99.8285 125.391C101.291 121.289 105.212 118.349 109.812 118.349C115.66 118.349 120.407 123.098 120.407 128.945C120.407 131.088 119.768 133.083 118.673 134.751Z" fill="#663366"/>
<path fill-rule="evenodd" clip-rule="evenodd" d="M72.4234 82.2425C72.7614 82.9637 73.4853 83.4235 74.2817 83.4235H137.693C138.663 83.4235 139.502 82.7434 139.702 81.7937C139.897 80.8618 140 79.8957 140 78.9063C140 71.1734 133.722 64.8965 125.989 64.8965C124.703 64.8965 123.457 65.0702 122.272 65.3959C120.371 59.9113 115.158 55.9703 109.031 55.9703C107.362 55.9703 105.761 56.2631 104.275 56.7995C102.508 51.085 97.1795 46.9277 90.8875 46.9277C83.1546 46.9277 76.8776 53.206 76.8776 60.9376C76.8776 62.2171 77.0487 63.4555 77.3702 64.6324C73.5948 67.142 71.1042 71.4361 71.1042 76.3063C71.1042 78.4274 71.5777 80.4403 72.4234 82.2425ZM75.6761 79.3182C75.3737 78.3685 75.2095 77.3559 75.2095 76.3063C75.2095 72.3995 77.4756 69.0195 80.7626 67.4061C81.7382 66.9272 82.172 65.7709 81.7506 64.7678C81.2552 63.5896 80.9829 62.2951 80.9829 60.9376C80.9829 55.4708 85.4207 51.033 90.8875 51.033C96.03 51.033 100.264 54.9604 100.747 59.977C100.815 60.6817 101.241 61.3016 101.875 61.6177C102.508 61.9338 103.261 61.901 103.864 61.5301C105.369 60.6065 107.139 60.0755 109.031 60.0755C113.971 60.0755 118.071 63.6977 118.816 68.4297C118.917 69.0701 119.314 69.6257 119.888 69.9268C120.462 70.2292 121.145 70.2429 121.729 69.9623C123.021 69.3452 124.464 69.0017 125.989 69.0017C131.456 69.0017 135.895 73.4395 135.895 78.9063C135.895 79.0446 135.892 79.1814 135.887 79.3182H75.6761Z" fill="#663366"/>
</svg>
