<svg width="150" height="150" viewBox="0 0 150 150" fill="none" xmlns="http://www.w3.org/2000/svg">
<path fill-rule="evenodd" clip-rule="evenodd" d="M92.2901 32.2279C95.2992 30.0371 99.0049 28.7439 103.009 28.7439C113.079 28.7439 121.255 36.9203 121.255 46.9905C121.255 57.0607 113.079 65.2356 103.009 65.2356C92.9387 65.2356 84.7624 57.0607 84.7624 46.9905C84.7624 43.4066 85.7983 40.0621 87.5868 37.2405C88.193 36.2839 87.9084 35.0154 86.9518 34.4078C85.9953 33.8016 84.7268 34.0862 84.1192 35.0428C81.927 38.4994 80.6571 42.5978 80.6571 46.9905C80.6571 59.3268 90.6726 69.3409 103.009 69.3409C115.345 69.3409 125.361 59.3268 125.361 46.9905C125.361 34.6541 115.345 24.6387 103.009 24.6387C98.1017 24.6387 93.5627 26.2233 89.8734 28.9081C88.9579 29.5746 88.7554 30.8595 89.4218 31.775C90.0883 32.6918 91.3732 32.8944 92.2901 32.2279Z" fill="#663366"/>
<path fill-rule="evenodd" clip-rule="evenodd" d="M100.956 12.0526V18.2844C100.956 19.4175 101.876 20.3371 103.009 20.3371C104.142 20.3371 105.062 19.4175 105.062 18.2844V12.0526C105.062 10.9196 104.142 10 103.009 10C101.876 10 100.956 10.9196 100.956 12.0526Z" fill="#663366"/>
<path fill-rule="evenodd" clip-rule="evenodd" d="M100.956 75.6972V81.929C100.956 83.062 101.876 83.9816 103.009 83.9816C104.142 83.9816 105.062 83.062 105.062 81.929V75.6972C105.062 74.5641 104.142 73.6445 103.009 73.6445C101.876 73.6445 100.956 74.5641 100.956 75.6972Z" fill="#663366"/>
<path fill-rule="evenodd" clip-rule="evenodd" d="M76.8516 23.7386L81.2593 28.1449C82.0598 28.9454 83.3612 28.9454 84.1617 28.1449C84.9622 27.343 84.9622 26.043 84.1617 25.2411L79.7554 20.8348C78.9535 20.0342 77.6535 20.0342 76.8516 20.8348C76.0511 21.6367 76.0511 22.9367 76.8516 23.7386Z" fill="#663366"/>
<path fill-rule="evenodd" clip-rule="evenodd" d="M121.856 68.7402L126.262 73.1465C127.064 73.9484 128.364 73.9484 129.165 73.1465C129.967 72.346 129.967 71.0446 129.165 70.2441L124.759 65.8377C123.958 65.0359 122.657 65.0359 121.856 65.8377C121.056 66.6383 121.056 67.9396 121.856 68.7402Z" fill="#663366"/>
<path fill-rule="evenodd" clip-rule="evenodd" d="M126.262 20.8348L121.856 25.2411C121.056 26.043 121.056 27.343 121.856 28.1449C122.657 28.9454 123.958 28.9454 124.759 28.1449L129.165 23.7386C129.967 22.9367 129.967 21.6367 129.165 20.8348C128.364 20.0342 127.064 20.0342 126.262 20.8348Z" fill="#663366"/>
<path fill-rule="evenodd" clip-rule="evenodd" d="M81.2593 65.8377L76.8516 70.2441C76.0511 71.0446 76.0511 72.346 76.8516 73.1465C77.6535 73.9484 78.9535 73.9484 79.7554 73.1465L84.1617 68.7402C84.9622 67.9396 84.9622 66.6383 84.1617 65.8377C83.3612 65.0359 82.0598 65.0359 81.2593 65.8377Z" fill="#663366"/>
<path fill-rule="evenodd" clip-rule="evenodd" d="M68.0703 49.0428H74.3021C75.4352 49.0428 76.3548 48.1232 76.3548 46.9901C76.3548 45.8571 75.4352 44.9375 74.3021 44.9375H68.0703C66.9373 44.9375 66.0177 45.8571 66.0177 46.9901C66.0177 48.1232 66.9373 49.0428 68.0703 49.0428Z" fill="#663366"/>
<path fill-rule="evenodd" clip-rule="evenodd" d="M131.716 49.0428H137.947C139.08 49.0428 140 48.1232 140 46.9901C140 45.8571 139.08 44.9375 137.947 44.9375H131.716C130.583 44.9375 129.663 45.8571 129.663 46.9901C129.663 48.1232 130.583 49.0428 131.716 49.0428Z" fill="#663366"/>
<path fill-rule="evenodd" clip-rule="evenodd" d="M109.971 106.293C108.533 102.343 106.122 98.858 103.031 96.1294C102.181 95.3795 100.882 95.4616 100.132 96.31C99.3839 97.1598 99.4646 98.4585 100.314 99.2083C103.218 101.77 105.404 105.13 106.524 108.943C106.795 109.863 107.666 110.473 108.622 110.413C108.885 110.397 109.15 110.388 109.419 110.388C116.381 110.388 122.035 116.041 122.035 123.005C122.035 129.969 116.381 135.622 109.419 135.622H30.4552C21.4318 135.622 14.1053 128.297 14.1053 119.272C14.1053 112.448 18.2954 106.595 24.2412 104.146C24.9062 103.872 25.3797 103.27 25.4892 102.558C27.5952 88.796 39.4991 78.24 53.8483 78.24C64.8627 78.24 74.4348 84.4609 79.2448 93.5773C79.6841 94.412 80.6365 94.839 81.5534 94.6118C83.1558 94.2163 84.8321 94.0056 86.5563 94.0056C89.2206 94.0056 91.7686 94.5065 94.11 95.4206C95.1651 95.8325 96.357 95.3111 96.7688 94.2547C97.1807 93.1996 96.658 92.0091 95.6029 91.5972C92.7977 90.5025 89.7475 89.9003 86.5563 89.9003C85.0401 89.9003 83.554 90.0372 82.1131 90.2972C76.4054 80.6266 65.8795 74.1348 53.8483 74.1348C37.8351 74.1348 24.4875 85.6377 21.622 100.822C14.7498 104.12 10 111.145 10 119.272C10 130.562 19.1657 139.727 30.4552 139.727H109.419C118.647 139.727 126.141 132.235 126.141 123.005C126.141 113.961 118.945 106.586 109.971 106.293Z" fill="#663366"/>
</svg>
